<?xml version="1.0" encoding="utf-8"?>
<!-- Generator: Adobe Illustrator 22.0.0, SVG Export Plug-In . SVG Version: 6.00 Build 0)  -->
<svg version="1.1"
	 id="svg4136" inkscape:version="0.91 r13725" sodipodi:docname="agrani_doer_logo_hor_all_white.svg" xmlns:cc="http://creativecommons.org/ns#" xmlns:dc="http://purl.org/dc/elements/1.1/" xmlns:inkscape="http://www.inkscape.org/namespaces/inkscape" xmlns:rdf="http://www.w3.org/1999/02/22-rdf-syntax-ns#" xmlns:sodipodi="http://sodipodi.sourceforge.net/DTD/sodipodi-0.dtd" xmlns:svg="http://www.w3.org/2000/svg"
	 xmlns="http://www.w3.org/2000/svg" xmlns:xlink="http://www.w3.org/1999/xlink" x="0px" y="0px" viewBox="0 0 72 10.6"
	 style="enable-background:new 0 0 72 10.6;" xml:space="preserve">
<style type="text/css">
	.st0{fill:#FFFFFF;fill-opacity:0.3585;}
	.st1{fill:#FFFFFF;}
	.st2{fill:#FFFFFF;stroke:#000000;stroke-width:7.527700e-04;stroke-opacity:0;}
</style>
<sodipodi:namedview  bordercolor="#666666" borderopacity="1" gridtolerance="10" guidetolerance="10" id="namedview4182" inkscape:current-layer="_152384880" inkscape:cx="39.56785" inkscape:cy="6.4666183" inkscape:pageopacity="0" inkscape:pageshadow="2" inkscape:window-height="1056" inkscape:window-maximized="1" inkscape:window-width="1920" inkscape:window-x="1600" inkscape:window-y="24" inkscape:zoom="10.437048" objecttolerance="10" pagecolor="#ffffff" showgrid="false" units="px">
	</sodipodi:namedview>
<polygon id="_152424504" class="st0" points="18.3,7.1 9.7,9 7.4,9 12.4,7.9 8.1,7.9 3.1,9 0.8,9 9.1,7.1 "/>
<polygon id="_152424432" class="st1" points="9.7,0.6 9.7,9 7.5,9 7.5,4.3 3.2,4.3 3.2,9 1,9 1,0.6 "/>
<g id="g4176" transform="translate(-7.2520222e-4,4.4664439e-4)">
	<path id="_152385144" inkscape:connector-curvature="0" class="st1" d="M31,2.9h0.9c-0.1-0.3-0.2-0.6-0.3-0.8
		c-0.2-0.2-0.4-0.4-0.6-0.6c-0.2-0.2-0.5-0.3-0.8-0.4C29.9,1,29.6,1,29.3,1c-0.1,0-0.3,0-0.4,0c-0.2,0-0.3,0.1-0.4,0.1
		c-0.1,0.1-0.2,0.1-0.3,0.2c-0.1,0.1-0.1,0.1-0.1,0.2c0.1,0,0.2,0,0.3,0c0.2,0,0.4,0,0.7,0c0.3,0,0.6,0,0.8,0.1
		c0.2,0,0.4,0.1,0.5,0.2c0.1,0.1,0.2,0.2,0.3,0.3c0.1,0.1,0.1,0.2,0.1,0.4c0,0.1-0.1,0.3-0.2,0.6L30.1,3c0.1-0.1,0.2-0.3,0.2-0.4
		c0-0.1-0.1-0.2-0.1-0.2c0-0.1-0.1-0.1-0.2-0.2c-0.1,0-0.2-0.1-0.4-0.1c-0.2,0-0.4,0-0.6,0c-0.5,0-0.8,0-1-0.1
		c-0.2-0.1-0.3-0.3-0.3-0.5c0-0.1,0.1-0.3,0.2-0.4C27.8,1,28,0.9,28.1,0.8c0.2-0.1,0.4-0.2,0.6-0.2c0.2-0.1,0.4-0.1,0.6-0.1
		c0.4,0,0.7,0.1,1.1,0.2c0.3,0.1,0.6,0.3,0.9,0.5c0.3,0.2,0.5,0.5,0.7,0.7c0.2,0.3,0.3,0.6,0.5,1h0.8v0.5h-0.8v4.8h-0.5V3.4H31
		L31,2.9L31,2.9z"/>
	<path id="_152385072" inkscape:connector-curvature="0" class="st1" d="M28.4,5.8C28.4,5.8,28.4,5.8,28.4,5.8c-0.1,0-0.1,0-0.1,0
		c-0.1,0-0.3,0-0.4-0.1c-0.1-0.1-0.2-0.2-0.3-0.3c-0.1-0.1-0.2-0.3-0.2-0.4c-0.1-0.2-0.1-0.3-0.1-0.4c0-0.2,0-0.4,0.1-0.6
		c0.1-0.2,0.2-0.4,0.3-0.5c0.1-0.1,0.3-0.3,0.4-0.4c0.2-0.1,0.4-0.1,0.6-0.1c0.3,0,0.6,0.1,0.8,0.2c0.2,0.2,0.4,0.4,0.6,0.7V2.1h0.5
		v0.8h0.9v0.5h-0.9v4.8H30V4.9c0-0.1,0-0.2-0.1-0.3c0-0.1-0.1-0.2-0.1-0.3c-0.1-0.1-0.1-0.2-0.2-0.3c-0.1-0.1-0.2-0.2-0.3-0.3
		c-0.1-0.1-0.2-0.2-0.3-0.2c-0.1-0.1-0.2-0.1-0.2-0.1c-0.2,0-0.3,0-0.5,0.1c-0.1,0-0.3,0.1-0.4,0.2C28,3.8,27.9,3.9,27.8,4
		c-0.1,0.1-0.1,0.3-0.1,0.4c0,0.1,0,0.2,0.1,0.3c0,0.1,0.1,0.2,0.1,0.3c0.1,0.1,0.1,0.2,0.2,0.2c0.1,0.1,0.2,0.1,0.3,0.1
		c0.1,0,0.1,0,0.2,0L28.4,5.8L28.4,5.8z"/>
	<path id="_152385000" inkscape:connector-curvature="0" class="st1" d="M24.4,7.9c0,0-0.1,0-0.2,0c-0.1,0-0.2,0-0.3,0
		c-0.1,0-0.2,0-0.3,0c-0.1,0-0.1,0-0.2,0c-0.3,0-0.5,0-0.7-0.1c-0.2-0.1-0.4-0.2-0.5-0.3c-0.1-0.1-0.2-0.3-0.3-0.4
		C22,7,21.9,6.9,21.9,6.7c0-0.1,0-0.3,0-0.4C22,6.1,22,6,22.1,5.9L22.5,6c0,0.1-0.1,0.3-0.1,0.4c0,0.1,0,0.2,0,0.2
		c0,0.2,0,0.3,0.1,0.4c0,0.1,0.1,0.2,0.2,0.3c0.1,0.1,0.2,0.1,0.4,0.2c0.2,0,0.4,0.1,0.6,0.1c0.1,0,0.1,0,0.2,0c0.1,0,0.1,0,0.2,0
		c0.1,0,0.1,0,0.2,0c0.1,0,0.1,0,0.2,0c0.2,0,0.4,0,0.5,0.1c0.2,0.1,0.3,0.2,0.5,0.3v-3c-0.5-1-1.1-1.5-1.7-1.5
		c-0.1,0-0.2,0-0.3,0.1c-0.1,0-0.2,0.1-0.3,0.2c-0.1,0.1-0.2,0.2-0.2,0.3c-0.1,0.1-0.1,0.2-0.1,0.3c0,0.1,0,0.2,0.1,0.2
		c0,0,0.1,0,0.2,0c0.1,0,0.2-0.1,0.3-0.1c0.1,0,0.2-0.1,0.3-0.1c0.1,0,0.1,0,0.2,0c0.1,0,0.2,0,0.3,0c0.1,0,0.2,0.1,0.2,0.1
		c0.1,0.1,0.1,0.1,0.2,0.2c0,0.1,0.1,0.2,0.1,0.3c0,0.1,0,0.2-0.1,0.3c-0.1,0.1-0.1,0.2-0.2,0.3c-0.1,0.1-0.2,0.2-0.3,0.4
		c-0.1,0.1-0.3,0.3-0.4,0.4l-0.4-0.3l0.5-0.5c0.1-0.1,0.3-0.3,0.3-0.4C24,4.9,24,4.8,24,4.8c0-0.1,0-0.1-0.1-0.2c-0.1,0-0.1,0-0.2,0
		c0,0,0,0-0.1,0c0,0-0.1,0-0.1,0.1c-0.1,0-0.1,0-0.2,0.1c-0.1,0-0.1,0.1-0.2,0.1c-0.1,0-0.1,0-0.2,0.1c0,0-0.1,0-0.1,0
		c-0.1,0-0.2,0-0.2,0c-0.1,0-0.1-0.1-0.2-0.1c0-0.1-0.1-0.1-0.1-0.2c0-0.1,0-0.2,0-0.2c0-0.2,0-0.4,0.1-0.5c0.1-0.2,0.2-0.3,0.3-0.4
		C22.9,3.1,23,3,23.2,3c0.2-0.1,0.4-0.1,0.5-0.1c0.2,0,0.4,0,0.5,0.1c0.2,0,0.3,0.1,0.4,0.2c0.1,0.1,0.3,0.2,0.4,0.4
		c0.1,0.1,0.2,0.3,0.4,0.5V2.1H26v0.7h0.7v0.5H26V9h-0.5V8.5c-0.1-0.1-0.1-0.1-0.2-0.2c-0.1-0.1-0.2-0.1-0.3-0.2
		C24.9,8,24.8,8,24.7,7.9C24.6,7.9,24.5,7.9,24.4,7.9L24.4,7.9z"/>
	<path id="_152384928" inkscape:connector-curvature="0" class="st1" d="M19.7,6.1c-0.3,0.5-0.7,0.7-1.1,0.7c-0.3,0-0.5,0-0.7-0.1
		c-0.2-0.1-0.4-0.2-0.6-0.3C17.2,6.2,17,6,16.9,5.8c-0.1-0.2-0.3-0.4-0.4-0.6c-0.1-0.2-0.2-0.5-0.3-0.7C16.1,4.3,16,4,16,3.8
		l0.5-0.2c0,0.2,0.1,0.4,0.2,0.6c0.1,0.2,0.1,0.4,0.2,0.6C17,5,17.1,5.2,17.2,5.4c0.1,0.2,0.2,0.3,0.4,0.5C17.7,6,17.9,6.1,18,6.2
		c0.2,0.1,0.3,0.1,0.5,0.1c0.1,0,0.3,0,0.4-0.1c0.1-0.1,0.2-0.1,0.3-0.2c0.1-0.1,0.1-0.2,0.2-0.3c0-0.1,0.1-0.2,0.1-0.4
		c0-0.1,0-0.2-0.1-0.4c-0.1-0.1-0.1-0.3-0.2-0.4c-0.1-0.1-0.2-0.2-0.3-0.3c-0.1-0.1-0.2-0.1-0.4-0.1c-0.1,0-0.2,0-0.3,0.1
		C18.1,4.4,18,4.6,18,4.8l-0.4-0.1c0.1-0.6,0.5-1,1-1c0.2,0,0.4,0,0.5,0.1c0.2,0.1,0.3,0.2,0.5,0.4c0.1,0.1,0.2,0.3,0.3,0.5
		C19.9,4.9,20,5.1,20,5.3c0,0,0,0.1,0,0.1c0,0,0,0.1,0,0.1l0.6,0.9v-3h-5.1V2.9h6.3v0.5H21v4.8h-0.5V7.3L19.7,6.1L19.7,6.1z"/>
</g>
<g>
	<path id="path4281" inkscape:connector-curvature="0" class="st2" d="M38.6,9.7c-0.3-0.3-0.5-0.5-0.6-0.5c-0.1,0-0.2,0.1-0.3,0.1
		c-0.2,0.2-0.8,0.2-1.1,0.2c-0.2-0.1-0.4-0.4-0.4-0.8c0-0.3,0-0.3,0.3-0.6c0.3-0.3,0.3-0.3,0.7-0.3c0.4,0,0.4,0,0.4-0.1
		c0-0.1,0-0.2,0.1-0.2c0,0,0.1-0.6,0.1-1.1c0-0.6,0.1-1.2,0.1-1.3c0.1-0.2-0.1-0.2-0.4-0.1c-0.3,0.1-1,0.8-1.2,1.2
		c-0.1,0.1-0.2,0.2-0.2,0.3c0,0-0.2-0.1-0.3-0.2l-0.3-0.2l0-1.3l0-1.3h-0.4h-0.4V3.2V2.8l1.9,0c3.1,0,7.1,0.1,7.2,0.2
		c0.1,0.1,0.2,0,0.2-0.4V2h0.4h0.4v0.4v0.4H47h2.4v0.4v0.4H49h-0.3v2.4v2.4h-0.4H48V7.8c0-0.6-0.1-0.8-0.5-1.2
		c-0.5-0.5-1.1-0.9-1.4-0.9c-0.2,0-0.3-0.1-0.5-0.3c-0.1-0.2-0.2-0.3-0.2-0.4c0.1-0.1,1.1-0.7,1.8-1.1C47.6,3.8,48,3.7,48,3.6
		c0,0-0.7-0.1-1.7-0.1h-1.7v2.4v2.4h-0.4h-0.4V6.2c0-2.6,0-2.7-0.8-2.7h-0.3v1c0,1.4-0.1,3.5-0.1,3.6c0,0-0.2,0.1-0.3,0.1l-0.3,0
		V7.9V7.4L41.6,7c-0.4-0.4-1.1-0.8-1.5-0.9c-0.2-0.1-0.4-0.2-0.6-0.4l-0.3-0.3l0.6-0.6c0.3-0.3,0.6-0.6,0.6-0.6c0,0-0.2-0.2-0.4-0.4
		l-0.4-0.3h-1.8H36v0.8c0,0.5,0,0.8,0.1,0.8c0,0,0.2-0.1,0.3-0.2c0.4-0.3,0.8-0.5,1.2-0.7c0.5-0.2,0.7-0.2,0.9,0l0.2,0.2L38.6,5
		c-0.2,0.5-0.2,0.6-0.1,1.7c0,0.6,0.1,1.2,0.1,1.3c0,0.1,0,0.2-0.1,0.2c-0.2,0-0.1,0.3,0.1,0.4c0.1,0.1,0.4,0.4,0.7,0.7l0.4,0.5
		L39.5,10c-0.1,0.1-0.2,0.2-0.3,0.2C39.1,10.2,38.8,10,38.6,9.7L38.6,9.7z M37.3,8.7c0-0.1,0-0.1-0.2-0.1c-0.2,0-0.3,0.1-0.3,0.1
		c0,0.1,0,0.1,0.2,0.1C37.2,8.8,37.3,8.8,37.3,8.7z M42,5V3.6h-0.5c-0.3,0-0.5,0-0.5,0c0,0,0.1,0.2,0.3,0.3c0.1,0.2,0.3,0.3,0.3,0.3
		c0,0-0.3,0.3-0.6,0.5c-0.3,0.3-0.6,0.5-0.6,0.5c0,0,0.2,0.2,0.5,0.3c0.3,0.1,0.6,0.3,0.8,0.5c0.2,0.1,0.3,0.3,0.3,0.3
		C42,6.4,42,5.8,42,5L42,5z M48,5.3c0-0.7,0-0.7-0.1-0.7c-0.2,0-1.1,0.5-1.2,0.6c0,0,0.2,0.2,0.4,0.3c0.2,0.1,0.5,0.3,0.6,0.4
		C47.7,5.9,47.9,6,47.9,6C47.9,6,48,5.7,48,5.3L48,5.3z"/>
	<path id="path4283" inkscape:connector-curvature="0" class="st2" d="M39.5,8.1c-0.1-0.1-0.2-0.2-0.2-0.3c-0.2-0.4,0.3-1,0.7-0.8
		c0.3,0.1,0.4,0.3,0.4,0.7C40.4,8.1,39.8,8.4,39.5,8.1L39.5,8.1z"/>
	<path id="path4285" inkscape:connector-curvature="0" class="st2" d="M45.4,7.7c-0.3-0.3-0.2-0.8,0.2-1c0.4-0.2,0.8,0.1,0.8,0.6
		c0,0.3-0.3,0.6-0.6,0.6C45.7,7.9,45.5,7.8,45.4,7.7L45.4,7.7z"/>
</g>
<g>
	<path id="path4287" inkscape:connector-curvature="0" class="st2" d="M53.9,7.7c0-0.4,0-0.5-0.2-0.8c-0.4-0.6-1.4-1.3-1.9-1.3
		c-0.2,0-0.2-0.1-0.3-0.2c-0.1-0.1-0.1-0.3-0.1-0.3c0.6-0.4,1.7-1,2.3-1.2c0.3-0.1,0.3-0.1,0.3-0.3V3.3h-1.5h-1.5V3.1V2.9h3h3
		L57,3.2l0.3,0.3V2.8V2.1h0.2c0.2,0,0.2,0,0.2,0.4v0.4h0.4h0.4v0.2c0,0.2,0,0.2-0.4,0.2l-0.4,0l0,2.4l0,2.4h-0.2h-0.2V6.1
		c0-2.2,0-2.3-0.4-2.6c-0.4-0.3-0.8-0.1-1.2,0.5c-0.3,0.4-0.2,0.6,0.1,1.3c0.5,0.9,0.5,1.6,0,2.2c-0.2,0.3-0.6,0.5-0.8,0.6
		c-0.2,0-0.2,0-0.2-0.2c0-0.2,0-0.2,0.2-0.3c0.2-0.1,0.5-0.3,0.7-0.6c0.2-0.4,0.1-0.8-0.3-1.6c-0.2-0.5-0.3-0.8-0.3-0.9
		c0-0.3,0.2-0.7,0.4-0.9c0.1-0.1,0.1-0.2,0.1-0.2c0,0-0.3,0-0.7,0l-0.7,0l0,2.4l0,2.4h-0.2h-0.2L53.9,7.7L53.9,7.7z M53.9,5.4V4.2
		l-0.2,0C53.4,4.3,52,5.1,52,5.2c0,0,0.1,0.1,0.2,0.1c0.4,0.1,0.9,0.5,1.3,0.9c0.2,0.2,0.3,0.3,0.3,0.3C53.8,6.5,53.9,6,53.9,5.4
		L53.9,5.4z"/>
	<path id="path4289" inkscape:connector-curvature="0" class="st2" d="M59.4,4.8c-0.4-0.2-0.6-0.5-0.6-0.9c0-0.4,0-0.6,0.3-0.8
		c0.4-0.3,1.1-0.1,1.4,0.4c0.2,0.3,0.2,0.8,0,1.1C60.3,4.8,59.8,4.9,59.4,4.8L59.4,4.8z M60.3,4.2c0.2-0.4-0.2-0.9-0.7-0.8
		c-0.4,0.1-0.5,0.5-0.2,0.8C59.7,4.5,60.1,4.5,60.3,4.2z"/>
	<path id="path4291" inkscape:connector-curvature="0" class="st2" d="M69.9,4.8c-0.3-0.2-0.4-0.3-0.6-0.6c-0.3-0.7,0.2-1.3,0.9-1.2
		c0.9,0.1,1.3,1.3,0.6,1.7C70.7,4.8,70.2,4.9,69.9,4.8L69.9,4.8z M70.6,4.4c0.1,0,0.3-0.2,0.3-0.4c0-0.4-0.6-0.8-0.9-0.5
		c-0.2,0.1-0.3,0.4-0.1,0.6c0.1,0.2,0.5,0.4,0.6,0.3C70.5,4.4,70.6,4.4,70.6,4.4L70.6,4.4z"/>
	<path id="path4293" inkscape:connector-curvature="0" class="st2" d="M61.9,5.8l0-2.4l-0.4,0c-0.4,0-0.4,0-0.4-0.2
		c0-0.2,0-0.2,0.3-0.2l0.3,0l-0.2-0.3c-0.2-0.3-0.2-0.3-0.1-0.5c0.2-0.6,0.8-1.1,1.4-1.3c0.4-0.1,1.1,0,1.6,0.1
		c0.4,0.1,1.1,0.6,1.6,1l0.3,0.2l-0.1,0.1L66,2.4L65.5,2c-0.8-0.6-1.3-0.8-2-0.8c-0.5,0-0.6,0-0.9,0.2c-0.3,0.2-0.7,0.7-0.7,0.9
		c0,0.1,0.1,0.2,0.2,0.4l0.2,0.3h3.3H69v0.2v0.2h-1.2h-1.2v0.3c0,0.3,0,0.3,0.4,0.3c0.5,0.1,1,0.4,1.2,0.8c0.5,0.7,0.2,1.8-0.5,1.8
		c-0.3,0-0.7-0.2-0.6-0.4c0.1-0.2,0.2-0.3,0.4-0.1c0.4,0.2,0.7-0.2,0.5-0.8c-0.1-0.4-0.8-0.9-1.3-1c-0.1,0-0.1,0.4-0.1,2v2h-0.2
		c-0.2,0-0.2,0-0.2-0.4c0-0.5-0.1-0.8-0.6-1.3c-0.5-0.5-1.2-0.9-1.5-0.9c-0.2,0-0.3,0-0.4-0.2l-0.1-0.2l0.3-0.2
		c0.4-0.3,1.4-0.8,1.9-1c0.4-0.1,0.4-0.1,0.4-0.4l0-0.2h-1.9h-1.9l0,2.4l0,2.4h-0.2h-0.2L61.9,5.8L61.9,5.8z M66.2,5.4V4.2l-0.2,0
		c-0.1,0-0.5,0.2-1,0.4c-0.7,0.4-1,0.6-0.7,0.6c0.3,0,1.7,1,1.7,1.2c0,0,0,0.1,0.1,0.1C66.2,6.5,66.2,6.1,66.2,5.4L66.2,5.4z"/>
	<path id="path4295" inkscape:connector-curvature="0" class="st2" d="M59.9,6.9l-1.3-1.2l0.2-0.2L59,5.3L59.7,6
		c0.4,0.4,1,0.9,1.3,1.2l0.5,0.5l-0.2,0.2l-0.2,0.2L59.9,6.9L59.9,6.9z"/>
	<path id="path4297" inkscape:connector-curvature="0" class="st2" d="M70.4,6.9l-1.3-1.2l0.2-0.2l0.2-0.2l1.3,1.2L72,7.8l-0.1,0.2
		c-0.1,0.1-0.1,0.2-0.2,0.2C71.7,8.1,71.1,7.5,70.4,6.9L70.4,6.9z"/>
</g>
</svg>
